<mxfile host="app.diagrams.net" agent="Mozilla/5.0 (Windows NT 10.0; Win64; x64) AppleWebKit/537.36 (KHTML, like Gecko) Chrome/130.0.0.0 Safari/537.36" version="24.8.2">
  <diagram name="第 1 页" id="RvcXjm-Nj4UyGAPZbjTR">
    <mxGraphModel dx="1868" dy="2284" grid="0" gridSize="10" guides="1" tooltips="1" connect="1" arrows="1" fold="1" page="1" pageScale="1" pageWidth="827" pageHeight="1169" math="0" shadow="0">
      <root>
        <mxCell id="0" />
        <mxCell id="1" parent="0" />
        <mxCell id="c6foWVuKoWLp02Q5EuhB-140" value="" style="rounded=1;whiteSpace=wrap;html=1;dashed=1;" vertex="1" parent="1">
          <mxGeometry x="1117" y="-195" width="644" height="724" as="geometry" />
        </mxCell>
        <mxCell id="c6foWVuKoWLp02Q5EuhB-84" value="" style="shape=flexArrow;endArrow=classic;html=1;rounded=0;fillColor=#fff2cc;strokeColor=#d6b656;" edge="1" parent="1">
          <mxGeometry width="50" height="50" relative="1" as="geometry">
            <mxPoint x="563" y="65" as="sourcePoint" />
            <mxPoint x="563" y="113" as="targetPoint" />
          </mxGeometry>
        </mxCell>
        <mxCell id="c6foWVuKoWLp02Q5EuhB-86" value="" style="shape=flexArrow;endArrow=classic;html=1;rounded=0;fillColor=#fff2cc;strokeColor=#d6b656;" edge="1" parent="1">
          <mxGeometry width="50" height="50" relative="1" as="geometry">
            <mxPoint x="1072" y="223.73" as="sourcePoint" />
            <mxPoint x="1120" y="223.73" as="targetPoint" />
          </mxGeometry>
        </mxCell>
        <mxCell id="c6foWVuKoWLp02Q5EuhB-89" value="" style="group" vertex="1" connectable="0" parent="1">
          <mxGeometry x="117" y="144" width="936" height="161" as="geometry" />
        </mxCell>
        <mxCell id="c6foWVuKoWLp02Q5EuhB-65" value="" style="group" vertex="1" connectable="0" parent="c6foWVuKoWLp02Q5EuhB-89">
          <mxGeometry y="24" width="936" height="137" as="geometry" />
        </mxCell>
        <mxCell id="c6foWVuKoWLp02Q5EuhB-83" value="" style="rounded=1;whiteSpace=wrap;html=1;dashed=1;" vertex="1" parent="c6foWVuKoWLp02Q5EuhB-65">
          <mxGeometry x="-12" y="-35" width="948" height="172" as="geometry" />
        </mxCell>
        <mxCell id="c6foWVuKoWLp02Q5EuhB-82" style="edgeStyle=orthogonalEdgeStyle;rounded=0;orthogonalLoop=1;jettySize=auto;html=1;" edge="1" parent="c6foWVuKoWLp02Q5EuhB-65" source="c6foWVuKoWLp02Q5EuhB-20">
          <mxGeometry relative="1" as="geometry">
            <mxPoint x="494.48711688701906" y="51.5" as="targetPoint" />
          </mxGeometry>
        </mxCell>
        <mxCell id="c6foWVuKoWLp02Q5EuhB-20" value="" style="rounded=1;whiteSpace=wrap;html=1;" vertex="1" parent="c6foWVuKoWLp02Q5EuhB-65">
          <mxGeometry width="370" height="103" as="geometry" />
        </mxCell>
        <mxCell id="c6foWVuKoWLp02Q5EuhB-41" value="&lt;b&gt;weighted&lt;br&gt;clustering&lt;/b&gt;" style="text;strokeColor=none;align=center;fillColor=none;html=1;verticalAlign=middle;whiteSpace=wrap;rounded=0;" vertex="1" parent="c6foWVuKoWLp02Q5EuhB-65">
          <mxGeometry x="155.71240105540895" y="36.5" width="58.57519788918205" height="30" as="geometry" />
        </mxCell>
        <mxCell id="c6foWVuKoWLp02Q5EuhB-61" value="" style="group" vertex="1" connectable="0" parent="c6foWVuKoWLp02Q5EuhB-65">
          <mxGeometry x="42.955145118733505" y="11.5" width="78.10026385224273" height="80" as="geometry" />
        </mxCell>
        <mxCell id="c6foWVuKoWLp02Q5EuhB-24" value="" style="ellipse;whiteSpace=wrap;html=1;aspect=fixed;dashed=1;" vertex="1" parent="c6foWVuKoWLp02Q5EuhB-61">
          <mxGeometry width="76.83377308707124" height="76.83377308707124" as="geometry" />
        </mxCell>
        <mxCell id="c6foWVuKoWLp02Q5EuhB-26" value="" style="ellipse;whiteSpace=wrap;html=1;aspect=fixed;fillColor=#dae8fc;strokeColor=#6c8ebf;" vertex="1" parent="c6foWVuKoWLp02Q5EuhB-61">
          <mxGeometry x="14.643799472295512" y="15.5" width="15.366754617414246" height="15.366754617414246" as="geometry" />
        </mxCell>
        <mxCell id="c6foWVuKoWLp02Q5EuhB-27" value="" style="ellipse;whiteSpace=wrap;html=1;aspect=fixed;fillColor=#dae8fc;strokeColor=#6c8ebf;" vertex="1" parent="c6foWVuKoWLp02Q5EuhB-61">
          <mxGeometry x="47.836411609498676" y="15.5" width="15.366754617414246" height="15.366754617414246" as="geometry" />
        </mxCell>
        <mxCell id="c6foWVuKoWLp02Q5EuhB-28" value="1" style="ellipse;whiteSpace=wrap;html=1;aspect=fixed;fillColor=#dae8fc;strokeColor=#6c8ebf;" vertex="1" parent="c6foWVuKoWLp02Q5EuhB-61">
          <mxGeometry x="30.263852242744058" y="35.5" width="15.366754617414246" height="15.366754617414246" as="geometry" />
        </mxCell>
        <mxCell id="c6foWVuKoWLp02Q5EuhB-29" value="" style="ellipse;whiteSpace=wrap;html=1;aspect=fixed;fillColor=#dae8fc;strokeColor=#6c8ebf;" vertex="1" parent="c6foWVuKoWLp02Q5EuhB-61">
          <mxGeometry x="14.643799472295512" y="54.5" width="15.366754617414246" height="15.366754617414246" as="geometry" />
        </mxCell>
        <mxCell id="c6foWVuKoWLp02Q5EuhB-30" value="" style="ellipse;whiteSpace=wrap;html=1;aspect=fixed;fillColor=#dae8fc;strokeColor=#6c8ebf;" vertex="1" parent="c6foWVuKoWLp02Q5EuhB-61">
          <mxGeometry x="47.836411609498676" y="54.5" width="15.366754617414246" height="15.366754617414246" as="geometry" />
        </mxCell>
        <mxCell id="c6foWVuKoWLp02Q5EuhB-62" value="" style="group" vertex="1" connectable="0" parent="c6foWVuKoWLp02Q5EuhB-65">
          <mxGeometry x="246.99208443271763" y="11.5" width="78.10026385224273" height="80" as="geometry" />
        </mxCell>
        <mxCell id="c6foWVuKoWLp02Q5EuhB-25" value="" style="ellipse;whiteSpace=wrap;html=1;aspect=fixed;dashed=1;" vertex="1" parent="c6foWVuKoWLp02Q5EuhB-62">
          <mxGeometry width="76.83377308707124" height="76.83377308707124" as="geometry" />
        </mxCell>
        <mxCell id="c6foWVuKoWLp02Q5EuhB-31" value="" style="ellipse;whiteSpace=wrap;html=1;aspect=fixed;fillColor=#fff2cc;strokeColor=#d6b656;" vertex="1" parent="c6foWVuKoWLp02Q5EuhB-62">
          <mxGeometry x="31.24010554089709" y="6.5" width="15.366754617414246" height="15.366754617414246" as="geometry" />
        </mxCell>
        <mxCell id="c6foWVuKoWLp02Q5EuhB-32" value="" style="ellipse;whiteSpace=wrap;html=1;aspect=fixed;fillColor=#fff2cc;strokeColor=#d6b656;" vertex="1" parent="c6foWVuKoWLp02Q5EuhB-62">
          <mxGeometry x="12.691292875989443" y="51.5" width="15.366754617414246" height="15.366754617414246" as="geometry" />
        </mxCell>
        <mxCell id="c6foWVuKoWLp02Q5EuhB-33" value="" style="ellipse;whiteSpace=wrap;html=1;aspect=fixed;fillColor=#fff2cc;strokeColor=#d6b656;" vertex="1" parent="c6foWVuKoWLp02Q5EuhB-62">
          <mxGeometry x="49.78891820580474" y="51.5" width="15.366754617414246" height="15.366754617414246" as="geometry" />
        </mxCell>
        <mxCell id="c6foWVuKoWLp02Q5EuhB-34" value="k" style="ellipse;whiteSpace=wrap;html=1;aspect=fixed;fillColor=#fff2cc;strokeColor=#d6b656;" vertex="1" parent="c6foWVuKoWLp02Q5EuhB-62">
          <mxGeometry x="31.24010554089709" y="32" width="15.366754617414246" height="15.366754617414246" as="geometry" />
        </mxCell>
        <mxCell id="c6foWVuKoWLp02Q5EuhB-66" value="" style="group" vertex="1" connectable="0" parent="c6foWVuKoWLp02Q5EuhB-89">
          <mxGeometry x="497" width="426" height="147" as="geometry" />
        </mxCell>
        <mxCell id="c6foWVuKoWLp02Q5EuhB-46" value="" style="rounded=1;whiteSpace=wrap;html=1;" vertex="1" parent="c6foWVuKoWLp02Q5EuhB-66">
          <mxGeometry width="426" height="147" as="geometry" />
        </mxCell>
        <mxCell id="c6foWVuKoWLp02Q5EuhB-47" value="&lt;span style=&quot;background-color: rgb(226, 241, 218);&quot;&gt;Q：The school cafeteria had 23 apples. If they used 20 to make lunch for the students and then bought 6 more, how many apples would they have?&lt;/span&gt;&lt;span style=&quot;background-color: rgb(253, 202, 201);&quot;&gt;#Answer this question ....&lt;/span&gt;" style="rounded=1;whiteSpace=wrap;html=1;strokeWidth=2;align=left;" vertex="1" parent="c6foWVuKoWLp02Q5EuhB-66">
          <mxGeometry x="83" y="10" width="318" height="60" as="geometry" />
        </mxCell>
        <mxCell id="c6foWVuKoWLp02Q5EuhB-48" value="&lt;span style=&quot;background-color: rgb(226, 241, 218);&quot;&gt;Q：Bianca was organizing her book case making sure each of the...&lt;/span&gt;&lt;span style=&quot;background-color: rgb(253, 202, 201);&quot;&gt;#Answer this question ....&lt;/span&gt;" style="rounded=1;whiteSpace=wrap;html=1;strokeWidth=2;align=left;" vertex="1" parent="c6foWVuKoWLp02Q5EuhB-66">
          <mxGeometry x="83" y="103" width="321" height="36" as="geometry" />
        </mxCell>
        <mxCell id="c6foWVuKoWLp02Q5EuhB-51" value="1" style="rounded=1;whiteSpace=wrap;html=1;" vertex="1" parent="c6foWVuKoWLp02Q5EuhB-66">
          <mxGeometry x="37" y="30" width="20" height="16" as="geometry" />
        </mxCell>
        <mxCell id="c6foWVuKoWLp02Q5EuhB-52" value="k" style="rounded=1;whiteSpace=wrap;html=1;" vertex="1" parent="c6foWVuKoWLp02Q5EuhB-66">
          <mxGeometry x="40" y="113" width="20" height="16" as="geometry" />
        </mxCell>
        <mxCell id="c6foWVuKoWLp02Q5EuhB-90" value="" style="group" vertex="1" connectable="0" parent="1">
          <mxGeometry x="102" y="-156" width="970" height="201" as="geometry" />
        </mxCell>
        <mxCell id="c6foWVuKoWLp02Q5EuhB-81" value="" style="rounded=1;whiteSpace=wrap;html=1;dashed=1;" vertex="1" parent="c6foWVuKoWLp02Q5EuhB-90">
          <mxGeometry width="970" height="201" as="geometry" />
        </mxCell>
        <mxCell id="c6foWVuKoWLp02Q5EuhB-76" style="edgeStyle=none;rounded=0;orthogonalLoop=1;jettySize=auto;html=1;exitX=1;exitY=0.5;exitDx=0;exitDy=0;entryX=0;entryY=0.5;entryDx=0;entryDy=0;" edge="1" parent="c6foWVuKoWLp02Q5EuhB-90" source="c6foWVuKoWLp02Q5EuhB-10" target="c6foWVuKoWLp02Q5EuhB-11">
          <mxGeometry relative="1" as="geometry" />
        </mxCell>
        <mxCell id="c6foWVuKoWLp02Q5EuhB-10" value="LLM" style="rounded=0;whiteSpace=wrap;html=1;fillColor=#dae8fc;strokeColor=#6c8ebf;" vertex="1" parent="c6foWVuKoWLp02Q5EuhB-90">
          <mxGeometry x="405" y="75" width="90" height="49" as="geometry" />
        </mxCell>
        <mxCell id="c6foWVuKoWLp02Q5EuhB-69" value="" style="group" vertex="1" connectable="0" parent="c6foWVuKoWLp02Q5EuhB-90">
          <mxGeometry x="22" y="14" width="352" height="182" as="geometry" />
        </mxCell>
        <mxCell id="c6foWVuKoWLp02Q5EuhB-6" value="" style="rounded=1;whiteSpace=wrap;html=1;" vertex="1" parent="c6foWVuKoWLp02Q5EuhB-69">
          <mxGeometry width="352" height="182" as="geometry" />
        </mxCell>
        <mxCell id="c6foWVuKoWLp02Q5EuhB-1" value="&lt;span style=&quot;background-color: rgb(226, 241, 218);&quot;&gt;Q：The school cafeteria had 23 apples. If they used 20 to make lunch for the students and then bought 6 more, how many apples would they have?&lt;/span&gt;&lt;span style=&quot;background-color: rgb(253, 202, 201);&quot;&gt;#Answer this question ....&lt;/span&gt;" style="rounded=1;whiteSpace=wrap;html=1;strokeWidth=2;align=left;" vertex="1" parent="c6foWVuKoWLp02Q5EuhB-69">
          <mxGeometry x="17.5" y="7" width="319" height="63" as="geometry" />
        </mxCell>
        <mxCell id="c6foWVuKoWLp02Q5EuhB-5" value="&lt;span style=&quot;background-color: rgb(226, 241, 218);&quot;&gt;Q：Bianca was organizing her book case making sure each of the....&lt;/span&gt;&lt;span style=&quot;background-color: rgb(253, 202, 201);&quot;&gt;#Answer this question ....&lt;/span&gt;" style="rounded=1;whiteSpace=wrap;html=1;strokeWidth=2;align=left;" vertex="1" parent="c6foWVuKoWLp02Q5EuhB-69">
          <mxGeometry x="15.5" y="121" width="321" height="49" as="geometry" />
        </mxCell>
        <mxCell id="c6foWVuKoWLp02Q5EuhB-9" value="&lt;font style=&quot;font-size: 19px;&quot;&gt;&lt;b&gt;...&lt;/b&gt;&lt;/font&gt;" style="text;strokeColor=none;align=center;fillColor=none;html=1;verticalAlign=middle;whiteSpace=wrap;rounded=0;" vertex="1" parent="c6foWVuKoWLp02Q5EuhB-69">
          <mxGeometry x="143" y="78" width="60" height="30" as="geometry" />
        </mxCell>
        <mxCell id="c6foWVuKoWLp02Q5EuhB-67" style="edgeStyle=none;rounded=0;orthogonalLoop=1;jettySize=auto;html=1;exitX=0.5;exitY=1;exitDx=0;exitDy=0;" edge="1" parent="c6foWVuKoWLp02Q5EuhB-69" source="c6foWVuKoWLp02Q5EuhB-9" target="c6foWVuKoWLp02Q5EuhB-9">
          <mxGeometry relative="1" as="geometry" />
        </mxCell>
        <mxCell id="c6foWVuKoWLp02Q5EuhB-70" value="" style="group" vertex="1" connectable="0" parent="c6foWVuKoWLp02Q5EuhB-90">
          <mxGeometry x="522" y="15" width="434" height="169" as="geometry" />
        </mxCell>
        <mxCell id="c6foWVuKoWLp02Q5EuhB-11" value="" style="rounded=1;whiteSpace=wrap;html=1;" vertex="1" parent="c6foWVuKoWLp02Q5EuhB-70">
          <mxGeometry width="434" height="169" as="geometry" />
        </mxCell>
        <mxCell id="c6foWVuKoWLp02Q5EuhB-13" value="&lt;span style=&quot;background-color: rgb(226, 241, 218);&quot;&gt;Q：Bianca was organizing her book case making sure each of the....&lt;/span&gt;&lt;span style=&quot;background-color: rgb(253, 202, 201);&quot;&gt;#Answer this question ....&lt;/span&gt;" style="rounded=1;whiteSpace=wrap;html=1;strokeWidth=2;align=left;" vertex="1" parent="c6foWVuKoWLp02Q5EuhB-70">
          <mxGeometry x="21" y="114.5" width="333" height="43" as="geometry" />
        </mxCell>
        <mxCell id="c6foWVuKoWLp02Q5EuhB-15" value="&lt;span style=&quot;background-color: rgb(226, 241, 218);&quot;&gt;Q：The school cafeteria had 23 apples. If they used 20 to make lunch for the students and then bought 6 more, how many apples would they have?&lt;/span&gt;&lt;span style=&quot;background-color: rgb(253, 202, 201);&quot;&gt;#Answer this question ....&lt;/span&gt;" style="rounded=1;whiteSpace=wrap;html=1;strokeWidth=2;align=left;" vertex="1" parent="c6foWVuKoWLp02Q5EuhB-70">
          <mxGeometry x="20" y="8" width="329" height="56" as="geometry" />
        </mxCell>
        <mxCell id="c6foWVuKoWLp02Q5EuhB-16" value="&lt;font style=&quot;font-size: 19px;&quot;&gt;&lt;b&gt;...&lt;/b&gt;&lt;/font&gt;" style="text;strokeColor=none;align=center;fillColor=none;html=1;verticalAlign=middle;whiteSpace=wrap;rounded=0;" vertex="1" parent="c6foWVuKoWLp02Q5EuhB-70">
          <mxGeometry x="157.5" y="73" width="60" height="30" as="geometry" />
        </mxCell>
        <mxCell id="c6foWVuKoWLp02Q5EuhB-43" value="3 steps (w1)" style="text;strokeColor=none;align=center;fillColor=none;html=1;verticalAlign=middle;whiteSpace=wrap;rounded=0;" vertex="1" parent="c6foWVuKoWLp02Q5EuhB-70">
          <mxGeometry x="349" y="24" width="78" height="30" as="geometry" />
        </mxCell>
        <mxCell id="c6foWVuKoWLp02Q5EuhB-44" value="4 steps (w2)&amp;nbsp;" style="text;strokeColor=none;align=center;fillColor=none;html=1;verticalAlign=middle;whiteSpace=wrap;rounded=0;" vertex="1" parent="c6foWVuKoWLp02Q5EuhB-70">
          <mxGeometry x="356" y="121" width="71" height="30" as="geometry" />
        </mxCell>
        <mxCell id="c6foWVuKoWLp02Q5EuhB-73" value="" style="edgeStyle=none;rounded=0;orthogonalLoop=1;jettySize=auto;html=1;" edge="1" parent="c6foWVuKoWLp02Q5EuhB-90" source="c6foWVuKoWLp02Q5EuhB-6" target="c6foWVuKoWLp02Q5EuhB-10">
          <mxGeometry relative="1" as="geometry" />
        </mxCell>
        <mxCell id="c6foWVuKoWLp02Q5EuhB-112" style="edgeStyle=orthogonalEdgeStyle;rounded=0;orthogonalLoop=1;jettySize=auto;html=1;" edge="1" parent="1" source="c6foWVuKoWLp02Q5EuhB-54">
          <mxGeometry relative="1" as="geometry">
            <mxPoint x="1432" y="468.33343505859375" as="targetPoint" />
          </mxGeometry>
        </mxCell>
        <mxCell id="c6foWVuKoWLp02Q5EuhB-54" value="" style="rounded=1;whiteSpace=wrap;html=1;container=0;" vertex="1" parent="1">
          <mxGeometry x="1128" y="-163" width="608" height="607" as="geometry" />
        </mxCell>
        <mxCell id="c6foWVuKoWLp02Q5EuhB-55" value="&lt;div&gt;&lt;span style=&quot;background-color: rgb(226, 241, 218);&quot;&gt;Q：The school cafeteria had 23 apples. If they used 20 to make lunch for the students and then bought 6 more, how many apples would they have?&lt;/span&gt;&lt;/div&gt;&lt;div&gt;&amp;nbsp;&lt;span style=&quot;background-color: rgb(253, 202, 201);&quot;&gt; #Answer this question by implementing a solver function.def solver(): #Let&#39;s write a Python program step by step, and then return the answer #Firstly,we need define the following variable: &lt;/span&gt;&lt;/div&gt;&lt;div&gt;&lt;span style=&quot;background-color: rgb(209, 227, 245);&quot;&gt;A:# Step 1: Define the initial number of apples and the apples used for lunch&lt;/span&gt;&lt;/div&gt;&lt;div&gt;&lt;span style=&quot;background-color: rgb(209, 227, 245);&quot;&gt;&amp;nbsp; &amp;nbsp; initial_apples = 23&lt;/span&gt;&lt;/div&gt;&lt;div&gt;&lt;span style=&quot;background-color: rgb(209, 227, 245);&quot;&gt;&amp;nbsp; &amp;nbsp; apples_used = 20&lt;/span&gt;&lt;/div&gt;&lt;div&gt;&lt;span style=&quot;background-color: rgb(209, 227, 245);&quot;&gt;&amp;nbsp; &amp;nbsp; apples_bought = 6&lt;/span&gt;&lt;/div&gt;&lt;div&gt;&lt;span style=&quot;background-color: rgb(209, 227, 245);&quot;&gt;&amp;nbsp; &amp;nbsp; # Step 2: Calculate the remaining apples after lunch&lt;/span&gt;&lt;/div&gt;&lt;div&gt;&lt;span style=&quot;background-color: rgb(209, 227, 245);&quot;&gt;&amp;nbsp; &amp;nbsp; remaining_apples = initial_apples - apples_used&lt;/span&gt;&lt;/div&gt;&lt;div&gt;&lt;span style=&quot;background-color: rgb(209, 227, 245);&quot;&gt;&amp;nbsp; &amp;nbsp; # Step 3: Calculate the total apples after buying more&lt;/span&gt;&lt;/div&gt;&lt;div&gt;&lt;span style=&quot;background-color: rgb(209, 227, 245);&quot;&gt;&amp;nbsp; &amp;nbsp; total_apples = remaining_apples + apples_bought&lt;/span&gt;&lt;/div&gt;&lt;div&gt;&lt;span style=&quot;background-color: rgb(209, 227, 245);&quot;&gt;&amp;nbsp; &amp;nbsp; # Return the result&lt;/span&gt;&lt;/div&gt;&lt;div&gt;&lt;span style=&quot;background-color: rgb(209, 227, 245);&quot;&gt;&amp;nbsp; &amp;nbsp; return total_apples&lt;/span&gt;&lt;/div&gt;&lt;div&gt;&lt;br&gt;&lt;/div&gt;&lt;div&gt;&lt;br&gt;&lt;/div&gt;" style="rounded=1;whiteSpace=wrap;html=1;align=left;spacingLeft=10;spacingBottom=-17;spacingRight=10;spacingTop=15;spacing=0;container=0;" vertex="1" parent="1">
          <mxGeometry x="1153" y="-143" width="563.5" height="216" as="geometry" />
        </mxCell>
        <mxCell id="c6foWVuKoWLp02Q5EuhB-57" value="&lt;div&gt;&lt;div&gt;&lt;span style=&quot;background-color: rgb(226, 241, 218);&quot;&gt;Q：Bianca was organizing her book case making sure each of the shelves had exactly 8 books on it. If she had 5 shelves of mystery books and 4 shelves of picture books, how many books did she have total?  &lt;/span&gt;&lt;/div&gt;&lt;div&gt;&lt;span style=&quot;background-color: rgb(253, 202, 201);&quot;&gt;#Answer this question by implementing a solver function.def solver(): #Let&#39;s write a Python program step by step, and then return the answer #Firstly,we need define the following variable:&lt;/span&gt; &lt;/div&gt;&lt;div&gt;&lt;span style=&quot;background-color: rgb(209, 227, 245);&quot;&gt;A:# Step 1: Define the variables for the number of shelves and books per shelf&lt;/span&gt;&lt;/div&gt;&lt;div&gt;&lt;span style=&quot;background-color: rgb(209, 227, 245);&quot;&gt;&amp;nbsp; &amp;nbsp; mystery_shelves = 5&lt;/span&gt;&lt;/div&gt;&lt;div&gt;&lt;span style=&quot;background-color: rgb(209, 227, 245);&quot;&gt;&amp;nbsp; &amp;nbsp; picture_shelves = 4&lt;/span&gt;&lt;/div&gt;&lt;div&gt;&lt;span style=&quot;background-color: rgb(209, 227, 245);&quot;&gt;&amp;nbsp; &amp;nbsp; books_per_shelf = 8&lt;/span&gt;&lt;/div&gt;&lt;div&gt;&lt;span style=&quot;background-color: rgb(209, 227, 245);&quot;&gt;&amp;nbsp; &amp;nbsp; # Step 2: Calculate the total number of mystery books&lt;/span&gt;&lt;/div&gt;&lt;div&gt;&lt;span style=&quot;background-color: rgb(209, 227, 245);&quot;&gt;&amp;nbsp; &amp;nbsp; total_mystery_books = mystery_shelves * books_per_shelf&lt;/span&gt;&lt;/div&gt;&lt;div&gt;&lt;span style=&quot;background-color: rgb(209, 227, 245);&quot;&gt;&amp;nbsp; &amp;nbsp; # Step 3: Calculate the total number of picture books&lt;/span&gt;&lt;/div&gt;&lt;div&gt;&lt;span style=&quot;background-color: rgb(209, 227, 245);&quot;&gt;&amp;nbsp; &amp;nbsp; total_picture_books = picture_shelves * books_per_shelf&lt;/span&gt;&lt;/div&gt;&lt;div&gt;&lt;span style=&quot;background-color: rgb(209, 227, 245);&quot;&gt;&amp;nbsp; &amp;nbsp; # Step 4: Calculate the total number of books&lt;/span&gt;&lt;/div&gt;&lt;div&gt;&lt;span style=&quot;background-color: rgb(209, 227, 245);&quot;&gt;&amp;nbsp; &amp;nbsp; total_books = total_mystery_books + total_picture_books&lt;/span&gt;&lt;/div&gt;&lt;div&gt;&lt;span style=&quot;background-color: rgb(209, 227, 245);&quot;&gt;&amp;nbsp; &amp;nbsp; # Return the result&lt;/span&gt;&lt;/div&gt;&lt;div&gt;&lt;span style=&quot;background-color: rgb(209, 227, 245);&quot;&gt;&amp;nbsp; &amp;nbsp; return total_books&lt;/span&gt;&lt;/div&gt;&lt;div&gt;&lt;br&gt;&lt;/div&gt;&lt;/div&gt;" style="rounded=1;whiteSpace=wrap;html=1;align=left;spacingLeft=10;spacingBottom=-3;spacingRight=10;spacingTop=18;spacing=0;container=0;" vertex="1" parent="1">
          <mxGeometry x="1160" y="88" width="563.5" height="263" as="geometry" />
        </mxCell>
        <mxCell id="c6foWVuKoWLp02Q5EuhB-58" value="&lt;div&gt;&lt;span style=&quot;background-color: rgb(226, 241, 218);&quot;&gt;Q： A trivia team had 7 members total, but during a game 2 members didn&#39;t show up. If each member that did show up scored 4 points, how many points were scored total? &lt;/span&gt; &lt;/div&gt;&lt;div&gt;&lt;span style=&quot;background-color: rgb(253, 202, 201);&quot;&gt;#Answer this question by implementing a solver function.def solver(): #Let&#39;s write a Python program step by step, and then return the answer #Firstly,we need define the following variable: &lt;/span&gt;&lt;/div&gt;&lt;div&gt;&lt;br&gt;&lt;/div&gt;" style="rounded=1;whiteSpace=wrap;html=1;align=left;spacingTop=9;container=0;" vertex="1" parent="1">
          <mxGeometry x="1177" y="358" width="521" height="68" as="geometry" />
        </mxCell>
        <mxCell id="c6foWVuKoWLp02Q5EuhB-59" value="&lt;font style=&quot;font-size: 19px;&quot;&gt;&lt;b&gt;...&lt;/b&gt;&lt;/font&gt;" style="text;strokeColor=none;align=center;fillColor=none;html=1;verticalAlign=middle;whiteSpace=wrap;rounded=0;container=0;" vertex="1" parent="1">
          <mxGeometry x="1402" y="62" width="60" height="30" as="geometry" />
        </mxCell>
        <mxCell id="c6foWVuKoWLp02Q5EuhB-111" value="LLM" style="rounded=0;whiteSpace=wrap;html=1;fillColor=#dae8fc;strokeColor=#6c8ebf;" vertex="1" parent="1">
          <mxGeometry x="1387" y="470" width="90" height="49" as="geometry" />
        </mxCell>
        <mxCell id="c6foWVuKoWLp02Q5EuhB-138" value="" style="rounded=1;whiteSpace=wrap;html=1;" vertex="1" parent="1">
          <mxGeometry x="108" y="398" width="945" height="125" as="geometry" />
        </mxCell>
      </root>
    </mxGraphModel>
  </diagram>
</mxfile>
